# xmcd
# 
# Track frame offsets:
#     183
#     17785
#     29838
#     45678
#     57168
#     72548
#     90433
#     109093
#     121683
#     134663
#     150405
#     162333
#     174660
#     187118
# 
# Disc length: 2668
# 
# Revision: 7
# Processed by: cddbd v1.5.2PL0 Copyright (c) Steve Scherf et al.
# Submitted via: fre:ac v1.0.27
# 
DISCID=c20a6a0e
DTITLE=Various Artist - 296
DYEAR=1990
DGENRE=Top 40
TTITLE0=Linda Ronstadt - Blue Bayou
TTITLE1=Tammy Wynette - Stand By Your Man
TTITLE2=Willie Nelson - Always On My Mind
TTITLE3=Freddy Fender - Before The Next Teardrop Falls
TTITLE4=Dolly Parton - Make Love Work
TTITLE5=Karen Brooks and Johnny Cash - I Will Dance With You
TTITLE6=Ricky Skaggs - You Make Me Feel Like A Man
TTITLE7=Don Williams - You're My Best Friend
TTITLE8=Marty Robbins - Devil Woman
TTITLE9=Billie Jo Spears - Blanket On The Ground
TTITLE10=Lynn Anderson - You're My Man
TTITLE11=Frankie Laine - High Noon (Do Not Forsake Me)
TTITLE12=Nancy Sinatra and Lee Hazlewood - Jackson
TTITLE13=Kenny Rogers - Ruby, Don't Take Your Love To Town
EXTD=
EXTT0=
EXTT1=
EXTT2=
EXTT3=
EXTT4=
EXTT5=
EXTT6=
EXTT7=
EXTT8=
EXTT9=
EXTT10=
EXTT11=
EXTT12=
EXTT13=
PLAYORDER=
